<?xml version="1.0" standalone="no"?>
<!DOCTYPE svg PUBLIC "-//W3C//DTD SVG 20010904//EN"
 "http://www.w3.org/TR/2001/REC-SVG-20010904/DTD/svg10.dtd">
<svg version="1.0" xmlns="http://www.w3.org/2000/svg"
 width="512.000000pt" height="512.000000pt" viewBox="0 0 512.000000 512.000000"
 preserveAspectRatio="xMidYMid meet">
<metadata>
Created by potrace 1.11, written by Peter Selinger 2001-2013
</metadata>
<g transform="translate(0.000000,512.000000) scale(0.100000,-0.100000)"
fill="#000000" stroke="none">
<path d="M530 5094 c-246 -72 -424 -248 -502 -496 -19 -62 -23 -93 -22 -203 1
-111 5 -141 27 -210 38 -116 90 -199 187 -295 95 -95 197 -154 325 -188 236
-63 511 13 686 191 95 96 163 220 193 352 20 91 16 266 -9 350 -76 257 -281
449 -543 510 -94 22 -244 17 -342 -11z"/>
<path d="M2335 5105 c-271 -59 -486 -268 -553 -535 -14 -56 -19 -105 -17 -190
2 -99 6 -128 32 -203 87 -250 276 -420 535 -481 54 -13 216 -15 1138 -13 1062
2 1076 3 1136 23 202 70 352 199 440 380 178 365 23 797 -347 968 -147 68
-114 66 -1267 65 -816 -1 -1050 -4 -1097 -14z"/>
<path d="M550 3259 c-130 -34 -233 -92 -331 -189 -96 -94 -146 -175 -187 -298
-22 -66 -26 -96 -26 -207 -1 -117 2 -139 27 -215 15 -47 43 -112 61 -144 156
-276 484 -419 790 -347 313 75 535 338 553 656 18 332 -181 626 -495 731 -107
36 -283 42 -392 13z"/>
<path d="M2370 3273 c-64 -11 -142 -38 -220 -76 -134 -66 -263 -203 -329 -347
-44 -99 -56 -159 -55 -295 1 -112 5 -141 27 -210 38 -114 90 -198 182 -290 92
-92 159 -135 282 -179 l88 -31 1060 -3 c1197 -3 1148 -6 1310 73 264 127 419
393 402 690 -17 299 -203 536 -507 647 l-65 23 -1075 1 c-591 1 -1086 -1
-1100 -3z"/>
<path d="M550 1420 c-131 -35 -234 -93 -331 -190 -146 -145 -209 -289 -214
-490 -6 -212 59 -374 205 -520 96 -96 178 -148 295 -187 70 -23 97 -27 215
-27 116 -1 145 2 204 22 217 73 361 199 451 395 51 111 69 210 62 336 -9 158
-56 284 -148 402 -43 55 -128 139 -141 139 -4 0 -13 6 -21 14 -21 21 -135 77
-202 98 -93 30 -278 34 -375 8z"/>
<path d="M2370 1433 c-268 -44 -491 -238 -578 -501 -22 -67 -25 -95 -25 -212
0 -119 3 -144 26 -215 85 -257 303 -448 562 -493 22 -4 522 -7 1110 -7 1195 0
1105 -5 1256 71 198 99 344 288 384 497 19 96 14 264 -10 342 -31 105 -110
240 -180 311 -85 85 -222 162 -347 195 -70 18 -123 19 -1123 17 -577 0 -1061
-3 -1075 -5z"/>
</g>
</svg>
